<svg width="18" height="18" viewBox="0 0 18 18" fill="none" xmlns="http://www.w3.org/2000/svg">
<g clip-path="url(#clip0_21254_78867)">
<path d="M17.64 9.20419C17.64 8.56601 17.5827 7.95237 17.4764 7.36328H9V10.8447H13.8436C13.635 11.9697 13.0009 12.9228 12.0477 13.561V15.8192H14.9564C16.6582 14.2524 17.64 11.9451 17.64 9.20419Z" fill="#4285F4"/>
<path d="M9.00366 18C11.4337 18 13.471 17.1941 14.9601 15.8195L12.0514 13.5613C11.2455 14.1013 10.2146 14.4204 9.00366 14.4204C6.65957 14.4204 4.67548 12.8372 3.96775 10.71H0.960938V13.0418C2.44184 15.9831 5.48548 18 9.00366 18Z" fill="#34A853"/>
<path d="M3.96409 10.7098C3.78409 10.1698 3.68182 9.59301 3.68182 8.99983C3.68182 8.40665 3.78409 7.82983 3.96409 7.28983V4.95801H0.957275C0.347727 6.17301 0 7.54755 0 8.99983C0 10.4521 0.347727 11.8266 0.957275 13.0416L3.96409 10.7098Z" fill="#FBBC04"/>
<path d="M9.00366 3.57955C10.3251 3.57955 11.5114 4.03364 12.4442 4.92545L15.0255 2.34409C13.4669 0.891818 11.4296 0 9.00366 0C5.48548 0 2.44184 2.01682 0.960938 4.95818L3.96775 7.29C4.67548 5.16273 6.65957 3.57955 9.00366 3.57955Z" fill="#EA4335"/>
</g>
<defs>
<clipPath id="clip0_21254_78867">
<rect width="18" height="18" fill="white"/>
</clipPath>
</defs>
</svg>
