<svg width="20" height="20" viewBox="0 0 20 20" fill="none" xmlns="http://www.w3.org/2000/svg">
<path d="M10 1.875C5.50781 1.875 1.875 5.50781 1.875 10C1.875 14.4922 5.50781 18.125 10 18.125C14.4922 18.125 18.125 14.4922 18.125 10C18.125 5.50781 14.4922 1.875 10 1.875ZM10 20C4.49219 20 0 15.5078 0 10C0 4.49219 4.49219 0 10 0C15.5078 0 20 4.49219 20 10C20 15.5078 15.5078 20 10 20ZM8.4375 13.125H9.375V10.625H8.4375C7.92969 10.625 7.5 10.1953 7.5 9.6875C7.5 9.17969 7.92969 8.75 8.4375 8.75H10.3125C10.8203 8.75 11.25 9.17969 11.25 9.6875V13.125H11.5625C12.0703 13.125 12.5 13.5547 12.5 14.0625C12.5 14.5703 12.0703 15 11.5625 15H8.4375C7.92969 15 7.5 14.5703 7.5 14.0625C7.5 13.5547 7.92969 13.125 8.4375 13.125ZM10 7.5C9.29688 7.5 8.75 6.95312 8.75 6.25C8.75 5.54688 9.29688 5 10 5C10.7031 5 11.25 5.54688 11.25 6.25C11.25 6.95312 10.7031 7.5 10 7.5Z" fill="#1FBDD2"/>
</svg>
